<?xml version="1.0" encoding="utf-8"?>
<!-- Generator: Adobe Illustrator 22.0.1, SVG Export Plug-In . SVG Version: 6.00 Build 0)  -->
<svg version="1.1" id="Layer_1" xmlns="http://www.w3.org/2000/svg" xmlns:xlink="http://www.w3.org/1999/xlink" x="0px" y="0px"
	 viewBox="0 0 256 256" style="enable-background:new 0 0 256 256;" xml:space="preserve">
<style type="text/css">
	.st0{fill:#3A312A;}
	.st1{fill:#FCE8CB;}
	.st2{fill:#8AC5DC;}
	.st3{fill:#ED6E7A;}
	.st4{fill:#D7E057;}
	.st5{fill:#87796F;}
	.st6{fill:#695B51;}
	.st7{fill:#EF6D7A;}
	.st8{fill:#D6DF58;}
	.st9{fill:#6A5C52;}
	.st10{fill:#F16C7A;}
	.st11{fill:#8AC6DD;}
	.st12{fill:#D34E5C;}
	.st13{fill:#B9C239;}
	.st14{fill:#6CA8BF;}
	.st15{fill:#89C4DB;}
	.st16{fill:#D5DE58;}
	.st17{fill:#DECAAD;}
	.st18{fill:#D5DC57;}
	.st19{fill:#8AC3DA;}
	.st20{fill:#D4DB56;}
	.st21{fill:#EA6D7A;}
	.st22{fill:#FAE6CA;}
	.st23{fill:#EB6E7A;}
	.st24{fill:#F8E4C8;}
	.st25{fill:#E96C7A;}
	.st26{fill:#8AC2D9;}
	.st27{fill:#E86C7A;}
	.st28{fill:#8AC1D8;}
	.st29{fill:#D4DA55;}
</style>
<g>
	<g>
		<g>
			<path class="st14" d="M205.33,85.07l-6,3.46l26.332,15.203c2.066,1.193,3.338,3.396,3.338,5.782v36.941
				c0,2.385-1.272,4.589-3.338,5.781L199.33,167.44l6,3.46l37.17-21.46v-42.91L205.33,85.07z"/>
		</g>
	</g>
	<g>
		<g>
			<path class="st13" d="M166.67,18.09l-6,3.47l26.323,15.203c2.065,1.193,3.337,3.396,3.337,5.781v36.935
				c0,2.383,1.271,4.586,3.334,5.779l2.666,1.542l7.5-4.33V39.55L166.67,18.09z"/>
		</g>
	</g>
	<g>
		<g>
			<path class="st17" d="M196.3,169.18l-2.663,1.557c-2.048,1.197-3.307,3.391-3.307,5.763v36.956c0,2.385-1.272,4.588-3.337,5.781
				L160.67,234.44l6,3.47l37.16-21.46v-42.92L196.3,169.18z"/>
		</g>
	</g>
	<g>
		<g>
			<polygon class="st5" points="128,83.336 89.333,105.66 89.333,150.308 128,172.633 166.667,150.308 166.667,105.66 			"/>
		</g>
	</g>
	<g>
		<g>
			<path class="st0" d="M167.417,104.361L128.75,82.037c-0.464-0.269-1.036-0.269-1.5,0l-38.667,22.324
				c-0.464,0.268-0.75,0.763-0.75,1.299v44.648c0,0.536,0.286,1.031,0.75,1.299l38.667,22.324c0.232,0.134,0.491,0.201,0.75,0.201
				s0.518-0.067,0.75-0.201l38.667-22.324c0.464-0.268,0.75-0.763,0.75-1.299V105.66
				C168.167,105.124,167.88,104.629,167.417,104.361z M165.167,149.442L128,170.901l-37.167-21.458v-42.916L128,85.068
				l37.167,21.458V149.442z"/>
		</g>
	</g>
	<g>
		<g>
			<polygon class="st8" points="50.667,83.336 12,105.66 12,150.308 50.667,172.633 89.333,150.308 89.333,105.66 			"/>
		</g>
	</g>
	<g>
		<g>
			<path class="st0" d="M90.083,104.361L51.417,82.037c-0.464-0.269-1.036-0.269-1.5,0L11.25,104.361
				c-0.464,0.268-0.75,0.763-0.75,1.299v44.648c0,0.536,0.286,1.031,0.75,1.299l38.667,22.324c0.232,0.134,0.491,0.201,0.75,0.201
				s0.518-0.067,0.75-0.201l38.667-22.324c0.464-0.268,0.75-0.763,0.75-1.299V105.66C90.833,105.124,90.547,104.629,90.083,104.361z
				 M87.833,149.442l-37.167,21.458L13.5,149.442v-42.916l37.167-21.458l37.167,21.458V149.442z"/>
		</g>
	</g>
	<g>
		<g>
			<polygon class="st2" points="89.333,16.361 75.322,24.451 63.273,31.407 50.667,38.685 50.667,83.334 89.333,105.658 128,83.334 
				128,38.685 			"/>
		</g>
	</g>
	<g>
		<g>
			<path class="st0" d="M128.75,37.386L90.083,15.063c-0.464-0.269-1.036-0.269-1.5,0l-14.012,8.089
				c-0.717,0.414-0.963,1.332-0.549,2.049c0.415,0.718,1.332,0.965,2.049,0.549l13.262-7.656L126.5,39.551v42.917l-37.167,21.458
				L52.167,82.468V39.551l11.857-6.846c0.717-0.414,0.963-1.332,0.549-2.049c-0.414-0.717-1.33-0.964-2.049-0.549l-12.607,7.278
				c-0.464,0.268-0.75,0.763-0.75,1.299v44.649c0,0.536,0.286,1.031,0.75,1.299l38.667,22.324c0.232,0.134,0.491,0.201,0.75,0.201
				s0.518-0.067,0.75-0.201l38.667-22.324c0.464-0.268,0.75-0.763,0.75-1.299V38.685C129.5,38.149,129.214,37.654,128.75,37.386z"/>
		</g>
	</g>
	<g>
		<g>
			<path class="st3" d="M89.333,150.342l-38.667,22.324v11.903L51,198.78c-0.115,0-0.221-0.012-0.333-0.016v18.551l38.667,22.324
				L128,217.315v-44.649L89.333,150.342z"/>
		</g>
	</g>
	<g>
		<g>
			<path class="st0" d="M128.75,171.367l-38.667-22.324c-0.464-0.269-1.036-0.269-1.5,0l-38.667,22.324
				c-0.464,0.268-0.75,0.763-0.75,1.299v11.903c0,0.829,0.671,1.5,1.5,1.5s1.5-0.671,1.5-1.5v-11.037l37.167-21.458l37.167,21.458
				v42.916l-37.167,21.458l-37.167-21.458v-16.725c0.208-0.257,0.333-0.585,0.333-0.943c0-0.829-0.671-1.5-1.5-1.5l-0.274-0.016
				c-0.414-0.01-0.805,0.135-1.099,0.418c-0.294,0.283-0.461,0.673-0.461,1.081v18.551c0,0.536,0.286,1.031,0.75,1.299
				l38.667,22.324c0.232,0.134,0.491,0.201,0.75,0.201s0.518-0.067,0.75-0.201l38.667-22.324c0.464-0.268,0.75-0.763,0.75-1.299
				v-44.648C129.5,172.13,129.214,171.635,128.75,171.367z"/>
		</g>
	</g>
	<g>
		<g>
			<polygon class="st2" points="205.333,83.336 166.667,105.66 166.667,150.308 205.333,172.633 244,150.308 244,105.66 			"/>
		</g>
	</g>
	<g>
		<g>
			<path class="st0" d="M244.75,104.361l-38.667-22.324c-0.464-0.269-1.036-0.269-1.5,0l-38.667,22.324
				c-0.464,0.268-0.75,0.763-0.75,1.299v44.648c0,0.536,0.286,1.031,0.75,1.299l38.667,22.324c0.232,0.134,0.491,0.201,0.75,0.201
				s0.518-0.067,0.75-0.201l38.667-22.324c0.464-0.268,0.75-0.763,0.75-1.299V105.66C245.5,105.124,245.214,104.629,244.75,104.361z
				 M242.5,149.442l-37.167,21.458l-37.167-21.458v-42.916l37.167-21.458l37.167,21.458V149.442z"/>
		</g>
	</g>
	<g>
		<g>
			<polygon class="st8" points="166.667,16.361 128,38.685 128,83.334 166.667,105.658 205.333,83.334 205.333,38.685 			"/>
		</g>
	</g>
	<g>
		<g>
			<path class="st0" d="M206.083,37.387l-38.667-22.324c-0.464-0.269-1.036-0.269-1.5,0L127.25,37.387
				c-0.464,0.268-0.75,0.763-0.75,1.299v44.648c0,0.536,0.286,1.031,0.75,1.299l38.667,22.324c0.232,0.134,0.491,0.201,0.75,0.201
				s0.518-0.067,0.75-0.201l38.667-22.324c0.464-0.268,0.75-0.763,0.75-1.299V38.686C206.833,38.149,206.547,37.654,206.083,37.387z
				 M203.833,82.468l-37.167,21.458L129.5,82.468V39.552l37.167-21.458l37.167,21.458V82.468z"/>
		</g>
	</g>
	<g>
		<g>
			<polygon class="st1" points="166.667,150.342 128,172.666 128,217.315 166.667,239.639 205.333,217.315 205.333,172.666 			"/>
		</g>
	</g>
	<g>
		<g>
			<path class="st0" d="M206.083,171.367l-38.667-22.324c-0.464-0.269-1.036-0.269-1.5,0l-38.667,22.324
				c-0.464,0.268-0.75,0.763-0.75,1.299v44.648c0,0.536,0.286,1.031,0.75,1.299l38.667,22.324c0.232,0.134,0.491,0.201,0.75,0.201
				s0.518-0.067,0.75-0.201l38.667-22.324c0.464-0.268,0.75-0.763,0.75-1.299v-44.648
				C206.833,172.13,206.547,171.635,206.083,171.367z M203.833,216.448l-37.167,21.458L129.5,216.448v-42.916l37.167-21.458
				l37.167,21.458V216.448z"/>
		</g>
	</g>
	<g>
		<g>
			<path class="st14" d="M205.33,85.07l-6,3.46l26.831,15.491c1.757,1.014,2.839,2.889,2.839,4.917v38.094
				c0,2.029-1.082,3.903-2.839,4.917L199.33,167.44l6,3.46l37.17-21.46v-42.91L205.33,85.07z"/>
		</g>
	</g>
	<g>
		<g>
			<path class="st13" d="M166.67,18.09l-6,3.47l26.822,15.49c1.756,1.015,2.838,2.889,2.838,4.917v38.087
				c0,2.027,1.081,3.901,2.835,4.916l3.165,1.83l7.5-4.33V39.55L166.67,18.09z"/>
		</g>
	</g>
	<g>
		<g>
			<path class="st17" d="M196.3,169.18l-3.157,1.846c-1.742,1.018-2.813,2.885-2.813,4.902v38.104c0,2.028-1.082,3.903-2.838,4.917
				l-26.822,15.49l6,3.47l37.16-21.46v-42.92L196.3,169.18z"/>
		</g>
	</g>
</g>
</svg>
